<?xml version="1.0" encoding="utf-8"?>
<!-- Svg Vector Icons : http://www.onlinewebfonts.com/icon -->
<!DOCTYPE svg PUBLIC "-//W3C//DTD SVG 1.1//EN" "http://www.w3.org/Graphics/SVG/1.1/DTD/svg11.dtd">
<svg version="1.1" xmlns="http://www.w3.org/2000/svg" xmlns:xlink="http://www.w3.org/1999/xlink" x="0px" y="0px" viewBox="0 0 1000 1000" enable-background="new 0 0 1000 1000" xml:space="preserve">
<metadata> Svg Vector Icons : http://www.onlinewebfonts.com/icon </metadata>
<g><g transform="translate(0.000000,511.000000) scale(0.100000,-0.100000)"><path d="M5824.6,4964.8c-179.3-57.8-334.7-209.2-398.4-384.4c-13.9-41.8-25.9-139.4-27.9-217.1c-2-326.7,239-579.6,569.7-601.5c193.2-12,314.7,29.9,454.2,157.3c143.4,131.5,199.2,258.9,199.2,456.1c2,245-121.5,442.2-338.6,549.7C6151.3,4988.7,5950.1,5006.7,5824.6,4964.8z"/><path d="M4012,4176.1c-105.6-41.8-143.4-209.1-67.7-304.7c25.9-31.9,71.7-57.8,119.5-67.7l79.7-15.9l-517.9-517.9l-517.9-517.9v91.6c0,127.5-53.8,195.2-131.5,167.3l-57.8-19.9l-6-219.1l-6-219.1l-754.9-756.9c-525.8-525.9-756.9-770.9-756.9-800.7c0-55.8,49.8-105.6,105.6-105.6c29.9,0,253,211.1,725,681.2l683.2,683.2V435.3v-1816.6H1504.3H100v-199.2v-199.2h4900h4900v199.2v199.2H8266.7H6633.3v1215c0,1219,10,1430.2,89.6,2015.8l10,73.7l-113.5-47.8c-137.4-55.8-139.4-65.7-31.9-294.8c59.8-127.5,69.7-165.3,53.8-209.2c-25.9-75.7-119.5-129.5-310.7-181.3c-193.2-49.8-225.1-75.7-350.6-284.8L5898.3,770h119.5h117.5V-305.7v-1075.6h-119.5h-119.5v1055.7c0,581.6-6,1055.7-12,1055.7c-6,0-55.8-39.8-111.6-87.6c-53.8-47.8-161.3-121.5-237-163.3l-137.4-77.7v-890.4v-892.4H4253H3107.7V536.9v1916.2l673.2,673.3l671.3,671.3h153.4c143.4,0,159.3,4,219.1,57.7c53.8,47.8,65.7,71.7,65.7,141.4s-12,93.6-65.7,141.4L4761,4196l-354.6-2C4213.2,4194,4033.9,4186,4012,4176.1z"/><path d="M8838.3,3624.3c-8-6-13.9-29.9-13.9-49.8c0-45.8-79.7-81.7-280.8-127.5c-153.4-33.8-217.1-71.7-217.1-127.5c0-21.9-145.4-101.6-511.9-272.9c-282.9-133.5-527.9-247-545.8-255c-23.9-8-79.7,69.7-237,330.6c-115.5,187.2-227.1,354.6-251,370.5c-35.9,23.9-169.3,27.9-739,27.9c-380.4,2-711.1,0-731,0c-53.8-2-864.5-808.7-902.3-896.3c-15.9-35.8-21.9-89.6-15.9-119.5c8-35.8,163.3-205.2,458.1-500l446.2-444.2l85.6,11.9c113.5,15.9,175.3,85.7,175.3,197.2c0,81.7-10,93.6-348.6,434.2l-348.6,350.6l155.4,153.4c85.6,85.6,161.3,147.4,169.3,141.4c8-8,14-45.8,14-85.7c0-95.6,19.9-161.3,47.8-161.3c57.7,0,249,111.5,394.4,227.1c185.2,149.4,288.8,191.2,468.1,191.2c201.2,0,316.7-87.6,366.5-276.9l23.9-97.6l101.6,39.8c55.8,21.9,121.5,47.8,145.4,57.8c35.8,13.9,49.8,4,83.7-53.8c23.9-37.8,41.8-73.7,41.8-79.7c0-8-492-247-507.9-247c-2,0-10,37.8-17.9,83.7c-33.8,215.1-143.4,334.6-302.7,334.6c-89.6,0-161.4-41.8-336.6-189.2c-199.2-167.3-270.9-209.1-356.5-209.1h-81.7l203.2-203.2c227.1-231,264.9-292.8,264.9-428.3c0-239-205.2-400.4-452.2-354.5c-65.7,11.9-135.4,71.7-486,422.3L4386.5,2228l-49.8-67.7c-121.5-163.3-171.3-360.5-137.4-553.7c47.8-262.9,223.1-589.6,436.2-816.7c195.2-205.2,310.7-268.9,494-268.9c260.9,2,484,161.3,687.2,498c133.5,217.1,223.1,290.8,416.3,338.6c147.4,35.8,241,91.6,241,143.4c0,15.9-39.8,73.7-87.7,129.5c-67.7,73.7-93.6,119.5-103.6,187.2c-6,49.8-6,97.6,4,105.6c10,10,183.3,103.6,386.4,209.1l368.5,193.2l39.8-47.8c53.8-65.8,113.5-93.6,193.2-93.6c51.8,0,169.3,69.7,549.8,322.7c266.9,177.3,503.9,344.6,523.9,372.5c19.9,25.9,37.9,73.7,37.9,105.6c0,59.8,0,59.8,87.6,47.8c83.6-13.9,93.6-10,203.2,83.7c183.3,151.4,215.1,167.3,292.8,153.4c81.7-15.9,101.6,6,97.6,103.6C9061.4,3516.7,8904.1,3692,8838.3,3624.3z"/><path d="M556.1-1976.8c-31.9-31.9-57.8-79.7-57.8-103.6c0-23.9,135.4-533.8,300.8-1131.4c326.7-1179.2,312.7-1095.5,251-1410.2l-29.9-145.4h880.4h880.4l-37.8,235l-37.9,233.1l300.8,1081.6c165.3,595.6,300.8,1099.5,300.8,1121.4c0,101.6-77.7,175.3-181.3,177.3c-137.4,0-143.4-13.9-408.3-970l-241-872.4l-569.7-6l-569.7-4l-29.9,103.6c-17.9,57.8-129.5,460.1-249,892.4c-235,850.5-237,856.5-374.5,856.5C633.8-1919.1,598-1935,556.1-1976.8z"/><path d="M3723.2-1976.8c-31.9-31.9-57.8-75.7-57.8-95.6s135.4-527.8,302.8-1129.4L4269-4297.4l-25.9-169.3c-14-93.6-29.9-201.2-35.8-235l-8-65.7h880.4c828.6,0,878.4,2,868.5,35.9c-4,17.9-23.9,119.5-41.8,223.1l-33.9,191.2l300.8,1085.6c165.3,597.6,300.8,1113.5,300.8,1149.3c0,147.4-197.2,223.1-298.8,113.5c-33.9-35.8-101.6-253-286.8-920.3l-241-872.4l-571.7-6l-571.7-4l-23.9,83.7c-133.5,505.9-460.1,1659.2-476.1,1689.1C3952.3-1901.2,3810.8-1891.2,3723.2-1976.8z"/><path d="M6910.2-1976.8c-31.9-31.9-57.8-75.7-57.8-95.6s135.4-527.8,302.8-1129.4L7456-4297.4l-25.9-169.3c-13.9-93.6-29.9-201.2-35.8-235l-8-65.7h880.4c828.6,0,878.4,2,868.4,35.9c-4,17.9-23.9,119.5-41.8,223.1l-33.9,191.2l300.8,1085.6c165.3,597.6,300.8,1113.5,300.8,1149.3c0,147.4-197.2,223.1-298.8,113.5c-33.9-35.8-101.6-253-286.8-920.3l-241-872.4l-571.7-6l-571.7-4l-23.9,83.7c-133.5,505.9-460.1,1659.2-476.1,1689.1C7139.3-1901.2,6997.8-1891.2,6910.2-1976.8z"/><path d="M1763.2-2482.8c-179.3-59.8-286.8-149.4-370.5-312.7c-37.8-71.7-47.8-121.5-47.8-249c0-139.4,8-173.3,59.8-264.9c99.6-183.3,257-282.9,468.1-296.8c187.2-13.9,326.7,41.8,456.1,185.2c209.1,227.1,209.1,535.8,4,770.9C2203.4-2504.7,1936.5-2427,1763.2-2482.8z"/><path d="M4904.4-2492.7c-201.2-71.7-342.6-233.1-386.4-446.2c-45.8-215.1,51.8-450.2,237-573.7c121.5-79.7,227.1-105.6,374.5-93.6c402.4,31.9,645.4,462.1,462.1,820.7C5460.1-2528.6,5161.3-2401.1,4904.4-2492.7z"/><path d="M8091.4-2492.7c-201.2-71.7-342.6-233.1-386.4-446.2c-45.8-215.1,51.8-450.2,237-573.7c121.5-79.7,227.1-105.6,374.5-93.6c402.4,31.9,645.4,462.1,462.1,820.7C8647.1-2528.6,8348.3-2401.1,8091.4-2492.7z"/></g></g>
</svg>