<svg id="Capa_1" enable-background="new 0 0 510.093 510.093" height="512" viewBox="0 0 510.093 510.093" width="512" xmlns="http://www.w3.org/2000/svg"><g><path d="m169.841 290.427c-28.176-.324-52.163 26.196-49.132 54.187 1.1 23.06 22.505 44.463 45.563 45.563 9.39.817 18.981-1.114 27.347-5.455 4.406-2.294 8.54-5.284 12.234-8.978 3.694-3.694 6.685-7.829 8.979-12.234 12.823-23.51 2.833-55.573-21.213-67.455-7.305-3.795-15.548-5.753-23.778-5.628z"/><path d="m113.927 396.956c-11.228-11.229-18.392-24.997-21.536-39.471l-4.825 2.193-86.774 86.776 63.64 63.64 86.776-86.776 2.179-4.795c-14.844-3.214-28.476-10.585-39.46-21.567z"/><path d="m489.672 0-274.213 274.212c4.117 2.807 8.007 6.008 11.607 9.607 6.916 6.916 12.29 14.797 16.139 23.21l12.145 12.145 21.213-21.213-21.214-21.213 21.214-21.214 21.213 21.213 21.213-21.213-21.213-21.213 21.213-21.213 21.213 21.213 21.213-21.213-21.213-21.213 21.235-21.235 21.376 21.289 21.17-21.257-21.332-21.245 21.244-21.243 21.467 21.258 21.109-21.316-21.363-21.155 54.194-54.194v397.032c0 4.465-1.968 8.665-5.396 11.523-5.563 4.636-13.642 4.637-19.205 0-3.431-2.859-5.398-7.059-5.398-11.524v-15.948h-30v15.949c0 13.394 5.901 25.994 16.192 34.57 8.346 6.955 18.576 10.433 28.808 10.433 10.23 0 20.463-3.478 28.81-10.434 10.289-8.576 16.19-21.176 16.19-34.569v-426.403z"/><path d="m236.66 385.337c-2.783 4.094-5.969 7.993-9.595 11.62-6.837 6.837-14.706 12.266-23.249 16.178l-33.319 33.319 42.427 42.427 21.213-21.213-21.214-21.213 42.427-42.427z"/></g></svg>