<?xml version="1.0" encoding="iso-8859-1"?>
<!-- Generator: Adobe Illustrator 19.0.0, SVG Export Plug-In . SVG Version: 6.00 Build 0)  -->
<svg version="1.1" id="Layer_1" xmlns="http://www.w3.org/2000/svg" xmlns:xlink="http://www.w3.org/1999/xlink" x="0px" y="0px"
	 viewBox="0 0 482.219 482.219" style="enable-background:new 0 0 482.219 482.219;" xml:space="preserve">
<g id="XMLID_1549_">
	<g>
		<g>
			<circle cx="237.678" cy="61.155" r="46.138"/>
			<path d="M301.088,261.385l-65.497-30.638l-10.061-67.029l15.972,36.98l10.268-26.892c6.14-16.081-1.919-34.095-18-40.235
				l-51.925-19.826c-16.081-6.14-34.095,1.919-40.235,18L91.568,265.216c-4.013,10.704-5.306,22.298-3.696,33.616
				c2.178,15.313,6.039,41.701,12.37,82.811H25.085C11.231,381.643,0,392.874,0,406.728c0,13.854,11.231,25.085,25.085,25.085
				h104.386c7.317,0,14.27-3.196,19.036-8.749c4.765-5.553,6.868-12.91,5.758-20.142l-14.345-93.439l64.306,16.197l-17.82,75.268
				c-3.193,13.48,5.148,26.996,18.63,30.188c13.466,3.192,26.995-5.139,30.188-18.63c25.563-107.97,23.654-99.69,23.92-101.511
				c-8.19-3.831-60.377-28.243-68.204-31.905c-10.949-5.121-16.937-16.572-15.702-27.953l8.947-81.214l11.725,78.11
				c1.039,6.924,5.475,12.866,11.815,15.832l75.648,35.386c10.468,4.897,22.905,0.372,27.792-10.075
				C316.057,278.718,311.545,266.276,301.088,261.385z"/>
		</g>
	</g>
</g>
<g id="XMLID_1226_">
	<g>
		<path d="M478.305,436.631c-78.865-103.049-73.302-96.09-75.558-98.038c-0.757-17.14-0.457-24.731,0.377-38.73
			c5.368-58.245,23.474-93.331,39.845-110.844c1.653-1.778-0.816-4.417-2.701-2.844c-15.2,12.689-35.584,41.206-48.511,81.169
			c-4.432-13.069-9.063-23.539-13.328-31.724c9.859-11.265,9.991-28.365-0.265-39.782c-11.076-12.331-24.897-27.716-65.204-27.678
			c10.438,24.01,9.474,55.458,20.55,67.789c7.903,8.799,19.823,11.803,30.486,8.797c6.2,12.173,13.403,30.137,19.364,55.4
			c-2.632,13.975-3.846,23.381-5.045,38.087c-2.51,2.046,2.709-4.394-75.962,98.399c-4.398,5.746-5.152,13.489-1.948,19.977
			c3.204,6.487,9.813,10.594,17.048,10.594h145.751c7.235,0,13.844-4.107,17.048-10.594
			C483.457,450.12,482.702,442.376,478.305,436.631z"/>
	</g>
</g>
<g>
</g>
<g>
</g>
<g>
</g>
<g>
</g>
<g>
</g>
<g>
</g>
<g>
</g>
<g>
</g>
<g>
</g>
<g>
</g>
<g>
</g>
<g>
</g>
<g>
</g>
<g>
</g>
<g>
</g>
</svg>
