<?xml version="1.0" encoding="iso-8859-1"?>
<!-- Generator: Adobe Illustrator 19.0.0, SVG Export Plug-In . SVG Version: 6.00 Build 0)  -->
<svg version="1.1" id="Layer_1" xmlns="http://www.w3.org/2000/svg" xmlns:xlink="http://www.w3.org/1999/xlink" x="0px" y="0px"
	 viewBox="0 0 512 512" style="enable-background:new 0 0 512 512;" xml:space="preserve">
<g>
	<g>
		<path d="M367.17,107.74c12.482-5.413,28.794-5.939,46.052-6.48c31.039-0.974,66.219-2.079,93.946-31.308l-24.227-22.98
			c-14.704,15.501-34.087,19.046-55.162,20.282C448.613,49.892,464.347,28.799,464.347,0h-33.391
			c0,29.032-31.683,48.575-65.227,69.266c-0.509,0.314-1.022,0.631-1.533,0.946c1.705-17.733-0.419-35.248-6.831-48.075
			l-29.867,14.931c7.43,14.861,4.074,45.408-6.657,63.046c-13.558,11.5-24.714,24.649-30.296,40.572
			c-10.846-3.465-22.467-5.296-34.544-5.296s-23.699,1.83-34.544,5.296c-5.582-15.922-16.739-29.073-30.297-40.573
			c-10.73-17.641-14.086-48.185-6.656-63.045l-29.867-14.931c-6.412,12.827-8.537,30.342-6.832,48.075
			c-0.511-0.315-1.024-0.632-1.533-0.946C112.729,48.575,81.045,29.032,81.045,0H47.653c0,28.799,15.734,49.892,36.565,67.253
			c-21.074-1.235-40.457-4.781-55.161-20.282L4.831,69.953c27.727,29.229,62.907,30.333,93.946,31.308
			c17.258,0.542,33.569,1.067,46.051,6.48c22.915,14.695,42.212,29.619,46.303,48.42c-0.924,0.685-1.837,1.385-2.736,2.101
			c-15.223-15.416-36.103-25.726-61.432-30.113c-28.861-4.999-55.487-1.004-70.784,4.4l-11.134,3.933v11.808
			c0,2.371,0.449,23.834,16.003,47.162c21.91,32.863,58.805,47.081,90.089,53.098c1.651,15.753,6.719,31.786,15.17,47.403
			c-1.051,19.004-4.627,87.419-3.677,122.151c0.64,23.367,10.677,46.94,27.541,64.674C208.089,501.622,231.467,512,256.001,512
			s47.912-10.378,65.831-29.222c16.862-17.734,26.901-41.307,27.54-64.673c0.952-34.73-2.626-103.145-3.677-122.15
			c8.451-15.617,13.519-31.652,15.171-47.405c31.283-6.017,68.179-20.236,90.09-53.098c15.555-23.328,16.003-44.791,16.003-47.162
			v-11.809l-11.135-3.933c-15.297-5.404-41.926-9.397-70.784-4.4c-25.331,4.388-46.21,14.697-61.432,30.113
			c-0.899-0.716-1.812-1.416-2.736-2.101C324.959,137.358,344.256,122.436,367.17,107.74z M163.825,186.894
			c-5.077,8.862-8.68,18.254-10.848,27.976c-50.52-10.946-66.806-37.987-72.052-54.123c11.438-1.81,25.913-2.197,40.338,0.302
			c13.862,2.401,31.91,8.221,44.796,22.152C165.293,184.415,164.543,185.641,163.825,186.894z M390.736,161.05
			c14.441-2.501,28.929-2.111,40.372-0.295c-5.21,16.044-21.458,43.152-72.086,54.117c-2.168-9.722-5.771-19.114-10.848-27.976
			c-0.718-1.253-1.468-2.48-2.234-3.694C358.826,169.271,376.874,163.45,390.736,161.05z M315.992,417.19
			c-0.992,36.195-32.412,61.419-59.992,61.419c-27.58,0-59.001-25.224-59.992-61.419c-0.443-16.184,0.178-40.717,1.046-63.716
			c13.852,25.839,28.069,44.607,58.946,44.607c30.878,0,45.094-18.767,58.946-44.606
			C315.814,376.474,316.435,401.006,315.992,417.19z M314.35,283.591c-8.97,15.295-15.733,28.591-21.699,40.32
			c-18.957,37.265-23.554,40.78-36.65,40.78c-13.095,0-17.693-3.514-36.65-40.78c-5.966-11.729-12.73-25.023-21.699-40.319
			c-16.311-27.815-18.079-57.01-4.853-80.099c12.451-21.734,36.077-34.71,63.201-34.71c27.124,0,50.751,12.975,63.202,34.71
			C332.429,226.582,330.66,255.777,314.35,283.591z"/>
	</g>
</g>
<g>
</g>
<g>
</g>
<g>
</g>
<g>
</g>
<g>
</g>
<g>
</g>
<g>
</g>
<g>
</g>
<g>
</g>
<g>
</g>
<g>
</g>
<g>
</g>
<g>
</g>
<g>
</g>
<g>
</g>
</svg>
