<?xml version="1.0" encoding="iso-8859-1"?>
<!-- Generator: Adobe Illustrator 16.0.0, SVG Export Plug-In . SVG Version: 6.00 Build 0)  -->
<!DOCTYPE svg PUBLIC "-//W3C//DTD SVG 1.1//EN" "http://www.w3.org/Graphics/SVG/1.1/DTD/svg11.dtd">
<svg version="1.1" id="Capa_1" xmlns="http://www.w3.org/2000/svg" xmlns:xlink="http://www.w3.org/1999/xlink" x="0px" y="0px"
	 width="30.311px" height="30.31px" viewBox="0 0 30.311 30.31" style="enable-background:new 0 0 30.311 30.31;"
	 xml:space="preserve">
<g>
	<g>
		<g>
			<path d="M25.264,8.012c-0.368,0.376-0.825,0.657-1.331,0.84c0.202,1.123,0.582,2.173,1.132,3.088h5.245V8.014
				c-0.642,0.654-1.532,1.062-2.52,1.062C26.801,9.075,25.905,8.667,25.264,8.012z"/>
			<path d="M0.008,13.727v13.944c0,0.593,0.481,1.073,1.075,1.073h5.642c0.559,0,1.025-0.428,1.071-0.982
				c0.07-0.838,0.109-1.7,0.109-2.582c0-4.606-0.961-8.725-2.469-11.453H0.008z"/>
			<path d="M5.054,8.012C4.411,8.668,3.516,9.075,2.528,9.075c-0.986,0-1.878-0.408-2.52-1.062v3.927h5.247
				c0.548-0.915,0.927-1.966,1.129-3.088C5.88,8.669,5.422,8.388,5.054,8.012z"/>
			<path d="M29.241,1.566H1.075C0.482,1.566,0,2.047,0,2.641v2.898c0,1.396,1.131,2.526,2.526,2.526s2.527-1.131,2.527-2.527
				c0,1.396,1.131,2.526,2.526,2.526s2.526-1.131,2.526-2.526c0,1.396,1.131,2.526,2.526,2.526s2.526-1.131,2.526-2.526
				c0,1.396,1.13,2.526,2.526,2.526c1.396,0,2.526-1.131,2.526-2.526c0,1.396,1.131,2.526,2.525,2.526
				c1.396,0,2.525-1.131,2.525-2.526c0,1.396,1.131,2.526,2.526,2.526c1.395,0,2.524-1.131,2.524-2.526V2.641
				C30.317,2.047,29.836,1.566,29.241,1.566z"/>
			<path d="M22.413,25.18c0,0.882,0.039,1.743,0.109,2.582c0.045,0.557,0.512,0.982,1.069,0.982h5.644
				c0.594,0,1.073-0.479,1.073-1.073V13.727h-5.427C23.375,16.457,22.413,20.574,22.413,25.18z"/>
		</g>
	</g>
</g>
<g>
</g>
<g>
</g>
<g>
</g>
<g>
</g>
<g>
</g>
<g>
</g>
<g>
</g>
<g>
</g>
<g>
</g>
<g>
</g>
<g>
</g>
<g>
</g>
<g>
</g>
<g>
</g>
<g>
</g>
</svg>
